<svg width="24" height="25" viewBox="0 0 24 25" fill="none" xmlns="http://www.w3.org/2000/svg">
<g id="Facebook logo" clip-path="url(#clip0_447_199)">
<g id="XMLID_17_">
<path id="XMLID_22_" d="M24 12.5C24 5.87188 18.6281 0.5 12 0.5C5.37188 0.5 0 5.87188 0 12.5C0 18.4902 4.38563 23.4547 10.1259 24.3552V15.9716H7.08141V12.5H10.1259V9.85672C10.1259 6.85156 11.9142 5.18844 14.6564 5.18844C15.9713 5.18844 17.3456 5.42516 17.3456 5.42516V8.37734H15.8334C14.3409 8.37734 13.8806 9.30453 13.8806 10.2514V12.5H17.2078L16.6753 15.9716H13.8806V24.3552C19.6144 23.4547 24 18.4902 24 12.5Z" fill="#1877F2"/>
<path id="XMLID_18_" d="M16.6686 15.9715L17.2016 12.5H13.8744V10.2514C13.8744 9.30451 14.3413 8.37732 15.8272 8.37732H17.3394V5.42513C17.3394 5.42513 15.965 5.18842 14.6502 5.18842C11.9085 5.18842 10.1197 6.85201 10.1197 9.8567V12.5H7.0752V15.9715H10.1197V24.3551C10.7314 24.4536 11.3558 24.5 11.9938 24.5C12.6318 24.5 13.2561 24.4475 13.8679 24.3551V15.9715H16.6686Z" fill="white"/>
</g>
</g>
<defs>
<clipPath id="clip0_447_199">
<rect width="24" height="24" fill="white" transform="translate(0 0.5)"/>
</clipPath>
</defs>
</svg>
