<svg width="20" height="21" viewBox="0 0 20 21" fill="none" xmlns="http://www.w3.org/2000/svg">
<g id="Google logo" clip-path="url(#clip0_447_192)">
<path id="Vector" d="M20 10.7269C20 9.88787 19.9319 9.27563 19.7846 8.64072H10.2041V12.4275H15.8276C15.7143 13.3686 15.1021 14.7858 13.7415 15.7382L13.7224 15.8649L16.7516 18.2116L16.9615 18.2326C18.8889 16.4525 20 13.8334 20 10.7269Z" fill="#4285F4"/>
<path id="Vector_2" d="M10.2036 20.7036C12.9586 20.7036 15.2715 19.7965 16.9609 18.232L13.741 15.7376C12.8793 16.3385 11.7228 16.758 10.2036 16.758C7.50517 16.758 5.21494 14.978 4.39853 12.5177L4.27886 12.5278L1.12908 14.9655L1.08789 15.08C2.76588 18.4133 6.2126 20.7036 10.2036 20.7036Z" fill="#34A853"/>
<path id="Vector_3" d="M4.39905 12.5172C4.18363 11.8823 4.05897 11.202 4.05897 10.4991C4.05897 9.79608 4.18363 9.11583 4.38772 8.48092L4.38201 8.3457L1.19276 5.8689L1.08841 5.91853C0.39683 7.30177 0 8.85509 0 10.4991C0 12.1431 0.39683 13.6963 1.08841 15.0795L4.39905 12.5172Z" fill="#FBBC05"/>
<path id="Vector_4" d="M10.2036 4.24154C12.1196 4.24154 13.4121 5.0692 14.1491 5.76086L17.0289 2.94905C15.2603 1.30506 12.9586 0.29599 10.2036 0.29599C6.2126 0.29599 2.76588 2.58622 1.08789 5.91953L4.3872 8.48192C5.21494 6.02161 7.50517 4.24154 10.2036 4.24154Z" fill="#EB4335"/>
</g>
<defs>
<clipPath id="clip0_447_192">
<rect width="20" height="20.4666" fill="white" transform="translate(0 0.266693)"/>
</clipPath>
</defs>
</svg>
