<svg width="168" height="69" viewBox="0 0 168 69" fill="none" xmlns="http://www.w3.org/2000/svg">
<g id="Logo">
<g id="SSF Khazana">
<path d="M23.0148 40.4467C19.4148 40.4467 17.1615 39.42 18.2948 36.2733H21.7081C21.5481 37.06 22.4815 37.3667 23.5881 37.3667C24.7481 37.3667 25.8148 37.14 25.8148 36.5C25.8148 36.2733 25.7615 35.8867 24.6815 35.7667L23.7881 35.6333C22.7081 35.5133 19.6948 35.1933 19.6948 32.7667C19.6948 30.0333 22.2681 28.5 25.9748 28.5C29.5081 28.5 31.7481 29.98 30.4815 32.6467H27.1748C27.2681 32.22 26.8815 31.5667 25.4148 31.5667C24.2681 31.5667 23.5348 31.94 23.5348 32.4733C23.5348 32.6867 23.6415 33.0067 24.4548 33.1267L25.0815 33.22C26.7215 33.5267 29.7748 33.6467 29.7748 36.1267C29.7748 39.4067 26.6015 40.4467 23.0148 40.4467Z" fill="#D6BB6F"/>
<path d="M35.6004 40.4467C32.0004 40.4467 29.7471 39.42 30.8804 36.2733H34.2938C34.1338 37.06 35.0671 37.3667 36.1738 37.3667C37.3338 37.3667 38.4004 37.14 38.4004 36.5C38.4004 36.2733 38.3471 35.8867 37.2671 35.7667L36.3738 35.6333C35.2938 35.5133 32.2804 35.1933 32.2804 32.7667C32.2804 30.0333 34.8538 28.5 38.5604 28.5C42.0938 28.5 44.3338 29.98 43.0671 32.6467H39.7604C39.8538 32.22 39.4671 31.5667 38.0004 31.5667C36.8538 31.5667 36.1204 31.94 36.1204 32.4733C36.1204 32.6867 36.2271 33.0067 37.0404 33.1267L37.6671 33.22C39.3071 33.5267 42.3604 33.6467 42.3604 36.1267C42.3604 39.4067 39.1871 40.4467 35.6004 40.4467Z" fill="#D6BB6F"/>
<path d="M55.0321 32.2333H48.7788L48.3788 33.4467H54.3254L53.2988 36.6333H47.3521L46.2321 40.0733H42.2188L45.8321 28.8733H56.1254L55.0321 32.2333Z" fill="#D6BB6F"/>
<path d="M73.3261 28.8733L67.3661 33.9667L70.9927 40.0733H66.9794L64.5394 35.98H64.1794L62.4061 37.38L61.5261 40.0733H57.4994L61.1661 28.8733H65.1927L64.0461 32.38H64.5394L68.7394 28.8733H73.3261Z" fill="#D6BB6F"/>
<path d="M82.8638 28.8733H86.8904L83.2904 40.0733H79.2638L80.4771 36.3133H76.5838L75.3704 40.0733H71.3304L74.9438 28.8733H78.9704L77.6638 32.9533H81.5571L82.8638 28.8733Z" fill="#D6BB6F"/>
<path d="M97.7365 40.0733H93.7231V38.7267H89.2565L88.3898 40.0733H84.0831L91.6165 28.8733H97.3098L97.7365 40.0733ZM91.1765 35.7533H93.7231V32.66H93.1631L91.1765 35.7533Z" fill="#D6BB6F"/>
<path d="M98.2254 40.0733L99.2788 36.7667L106.039 32.5267L106.172 32.2067H100.852L101.959 28.8733H112.665L111.599 32.18L104.839 36.42L104.705 36.74H110.012L108.905 40.0733H98.2254Z" fill="#D6BB6F"/>
<path d="M123.205 40.0733H119.191V38.7267H114.725L113.858 40.0733H109.551L117.085 28.8733H122.778L123.205 40.0733ZM116.645 35.7533H119.191V32.66H118.631L116.645 35.7533Z" fill="#D6BB6F"/>
<path d="M123.787 40.0733L127.454 28.8733H131.92L133.414 34.5533H133.827L135.707 28.8733H139.64L136 40.0733H131.64L130 34.4867H129.587L127.734 40.0733H123.787Z" fill="#D6BB6F"/>
<path d="M150.438 40.0733H146.425V38.7267H141.958L141.092 40.0733H136.785L144.318 28.8733H150.012L150.438 40.0733ZM143.878 35.7533H146.425V32.66H145.865L143.878 35.7533Z" fill="#D6BB6F"/>
</g>
</g>
</svg>
